<svg id="Layer_1" data-name="Layer 1" xmlns="http://www.w3.org/2000/svg" viewBox="0 0 1080 313.48"><defs><style>.cls-1{fill:#383b41;}.cls-2{fill:#0098d8;}</style></defs><path class="cls-1" d="M17.42,214.65H134l-5.47,31.24H11.94ZM42.1,73.85H158.71l-5.48,31.24H36.63L42.1,73.85"/><polygon class="cls-1" points="339.7 245.9 306.29 245.9 336.45 73.85 369.86 73.85 339.7 245.9"/><path class="cls-1" d="M511.45,144.83l-6.74,38.47a82.83,82.83,0,0,1-13.63,33.78,70.71,70.71,0,0,1-25.78,22.6,73.39,73.39,0,0,1-34.11,8q-18.7,0-31.68-7.51a41.57,41.57,0,0,1-18.39-21.24q-5.43-13.72-2.25-31.83l8.9-50.77a82.39,82.39,0,0,1,13.62-33.72,70.75,70.75,0,0,1,25.78-22.54,73.32,73.32,0,0,1,34.1-8q15.28,0,27.12,6.33a45.63,45.63,0,0,1,18.45,17.93q6.62,11.6,7,26.86H479a18.34,18.34,0,0,0-4.17-9.41,21.59,21.59,0,0,0-8.47-6,29,29,0,0,0-11-2.08,33,33,0,0,0-27.79,14.56,40.29,40.29,0,0,0-6.41,16.09l-8.9,50.77a25.07,25.07,0,0,0,1.16,14.19,18.7,18.7,0,0,0,8.69,9.47,31,31,0,0,0,14.95,3.32A34.69,34.69,0,0,0,453,210.45,31.4,31.4,0,0,0,464.84,200a40.44,40.44,0,0,0,6.37-16.22l1.35-7.7H446.69l5.47-31.24Z"/><path class="cls-1" d="M604.83,211.52a32.89,32.89,0,0,0,12-10.59,39.45,39.45,0,0,0,6.37-15.86l8.83-50.41q1.57-9-.81-15.85a19.88,19.88,0,0,0-8.32-10.59q-5.94-3.72-14.64-3.73a34.42,34.42,0,0,0-15.95,3.73,33,33,0,0,0-12,10.59A39.24,39.24,0,0,0,574,134.66l-8.83,50.41q-1.57,9,.8,15.86a19.85,19.85,0,0,0,8.32,10.59q5.94,3.72,14.64,3.73a34.36,34.36,0,0,0,16-3.73m-53,28.28a42.36,42.36,0,0,1-18-22.24q-5.25-14.38-1.93-33.31l8.55-48.76A80.34,80.34,0,0,1,554,102.18a70.58,70.58,0,0,1,25.84-22.24A74.61,74.61,0,0,1,614,72.07q18.6,0,31.39,7.87a42.45,42.45,0,0,1,18,22.24q5.25,14.38,1.93,33.31l-8.55,48.76a80.42,80.42,0,0,1-13.6,33.31,70.52,70.52,0,0,1-25.85,22.24,74.46,74.46,0,0,1-34.14,7.87q-18.59,0-31.38-7.87"/><polygon class="cls-1" points="261.75 129.16 261.77 129.13 266 139.38 315.62 73.85 281.61 73.85 253.99 110.35 261.75 129.16"/><polygon class="cls-2" points="239.77 129.13 239.75 129.16 216.91 73.85 182.92 73.85 212.28 144.85 29.66 144.85 24.18 176.09 204.22 176.09 151.34 245.89 185.34 245.89 251.77 158.16 239.77 129.13"/><polygon class="cls-1" points="259.9 177.97 237.96 206.95 254.04 245.9 288.05 245.9 259.9 177.97"/><path class="cls-1" d="M801.41,196.26H776.54l-6.21,31.42h28.56l-3.7,18.65H745.8l21.67-113.24h47.38l-3.7,18.49h-26l-5.54,26.88h25.37Z"/><path class="cls-1" d="M842.91,157.29h-.33l-18.49,8.9-.33-16.8,25.37-12.26h18.31l-20.83,109.2H825.94Z"/><path class="cls-1" d="M927.76,155.77H901.89l-5.55,20.33a1.93,1.93,0,0,1,.84-.16,23.15,23.15,0,0,1,17.14,8.57c4.7,5.37,6.55,11.92,6.55,20.49,0,23.86-18.14,42.67-43.34,42.67-7.9,0-13.78-1.17-16.64-3L866.1,227a27.57,27.57,0,0,0,12.1,2.52c11.93,0,22-8.4,22-21,0-12.27-8.57-16.63-19-16.63a51.58,51.58,0,0,0-7.05.33l14.11-55.1h43.34Z"/><path class="cls-1" d="M1000.17,168.88c0,31.75-12.09,78.79-42.84,78.79-20,0-24.19-18.81-24.19-33.93,0-36.8,15.29-78,42.67-78C997.32,135.78,1000.17,156.28,1000.17,168.88Zm-46.87,46.7c0,9.08,1.85,14.29,6.89,14.29,13.1,0,19.66-51.92,19.66-64.18,0-7.06-1.85-12.1-6.05-12.1C960.36,153.59,953.3,201.64,953.3,215.58Z"/><path class="cls-1" d="M1068.06,168.88c0,31.75-12.1,78.79-42.85,78.79-20,0-24.19-18.81-24.19-33.93,0-36.8,15.29-78,42.67-78C1065.2,135.78,1068.06,156.28,1068.06,168.88Zm-46.88,46.7c0,9.08,1.85,14.29,6.89,14.29,13.1,0,19.66-51.92,19.66-64.18,0-7.06-1.85-12.1-6-12.1C1028.24,153.59,1021.18,201.64,1021.18,215.58Z"/></svg>