<svg id="Layer_1" data-name="Layer 1" xmlns="http://www.w3.org/2000/svg" viewBox="0 0 1080 313.48"><defs><style>.cls-1{fill:#00adee;}.cls-2{fill:#878c85;}</style></defs><path class="cls-1" d="M752.6,244.81H688.24c4-18.59,14.18-31.44,32.77-45.76l10.19-8c11.07-8.42,13.72-13.14,16.09-23.92,1.77-8.71-.89-13-7.53-13-10.63,0-13.73,9.31-16.23,20.37H703.16l.87-4c4.14-19.34,16.54-30.27,38.84-30.27,21,0,29.08,10.48,25.23,28.5-2.8,13.58-9,22.43-23.18,33.21l-14.16,10.92c-7.39,5.62-12.1,11.37-14,15.36h39.41Z"/><path class="cls-1" d="M766.8,205.69l48.58-65.4h22l-14,66.29h10l-3.54,16.53h-10l-4.57,21.7H795.74l4.57-21.7h-37.2Zm45.48-38.83H812L783.2,206.58h20.66Z"/><path class="cls-1" d="M859.24,189.45v-.3c-10.63-2.94-12.39-12.54-10.77-20.07,4.43-20.52,17.72-28.79,36.76-28.79s29.08,8.27,24.65,28.79a26.35,26.35,0,0,1-19.34,20.07v.3c11.23,2.37,14.91,12.7,12.26,25.84-2.66,12-11.08,31.59-40.16,31.59s-29.23-19.63-26.57-31.59C838.73,202.15,846.85,191.82,859.24,189.45ZM865.59,233c9.6,0,13.89-8.11,15.94-18s1.34-18-8.26-18-13.87,8-15.95,18S856,233,865.59,233Zm10.63-49.9c6.21,0,11.36-4.86,13.44-14.61,1.92-9.45-.3-14.32-7.23-14.32S870.91,159,869,168.49C866.93,178.24,870,183.1,876.22,183.1Z"/><path class="cls-2" d="M627.52,132.72H574.39l-69.79,115h143L655.05,209H581.46Zm-16.31,9.2-37.64,62.34-8.43,14H643.9L640,238.47H521l58.62-96.55Z"/><path class="cls-2" d="M664.14,72.07H526.61l-7.81,38.66h122Zm-16.31,9.2L635.6,101.52H530.05l4.1-20.25Z"/><path class="cls-2" d="M360.58,69.57c-2.46,12-4.76,23.14-7.35,35.73l140,.62c2.44-12.22,4.78-23.85,7.15-35.74l-139.75-.61m7.5,9.23,96.39.43,24.64.11-1.25,6.23-2.22,11.11-22-.09-99.11-.44,3.06-14.84Z"/><path class="cls-2" d="M348.29,132.72l-23,114.62,35.42.07,17.73-78.79,102.39.45L488,133.34Zm7.53,9.24,121,.53-3.46,17.35-94.83-.42-7.4,0-1.62,7.22L353.4,238.2l-16.84,0Z"/><path class="cls-2" d="M232.59,248.19c-39.49,0-62.78-20.49-63.89-56.22l-.15-4.74h41.34l.48,4.06c1.84,15.49,9.84,22.7,25.19,22.7,8.06,0,21.59-2.39,21.59-18.41,0-10.19-3.56-15.41-23.58-24.43-29.85-13.27-46-25.39-46-51.37,0-32,24.55-53.58,61.07-53.58C268.77,66.2,285.17,72,296,83c9.39,9.5,14.27,22.35,14.1,37.16l-.05,4.56H269l-.35-4.22c-1.15-13.73-7.79-19.85-21.52-19.85-11.28,0-17,4.89-17,14.53,0,7.06,3.53,11.1,23.4,19.77,34.22,15,47.55,30.3,47.55,54.7C301.11,225.75,274.86,248.19,232.59,248.19ZM178.2,196.43c2,20.43,13.6,42.56,54.39,42.56,37.14,0,59.32-18.46,59.32-49.37,0-17.22-7-31-42-46.26C232.41,135.74,221,129.65,221,115.15c0-14.86,9.8-23.73,26.21-23.73,17.07,0,27.42,8.3,30.15,24.06h23.46c-.77-10.36-4.63-19.3-11.3-26-9.08-9.18-23.21-14-40.87-14-31.51,0-51.87,17.41-51.87,44.37,0,19.1,9.49,29.14,40.6,43,19.67,8.86,29,16,29,32.83,0,17-11.8,27.62-30.8,27.62-18.68,0-30.26-9.23-33.69-26.77Z"/></svg>