<svg id="Layer_1" data-name="Layer 1" xmlns="http://www.w3.org/2000/svg" viewBox="0 0 1080 313.48"><defs><style>.cls-1{fill:#00adee;}.cls-2{fill:#878c85;}</style></defs><path class="cls-1" d="M512.94,243.6l15.76-74.34h-21l3-14h1.93c14,0,23.79-5.35,28.25-16.95h15.77L534.35,243.6Z"/><path class="cls-1" d="M602.67,138.33c25.43,0,30.18,13.84,22.15,51.16-6.24,29.29-13.53,56.2-44.9,56.2-25.43,0-30-13.84-22.16-51.15C564,165.39,571.3,138.33,602.67,138.33Zm-24.39,60.81c-5.65,26.47-4.61,32.56,4.61,32.56s13.38-8.31,19.18-35.37l2.38-11.46c5.65-26.47,4.61-32.56-4.61-32.56-9.37,0-13.38,8.33-19.18,35.38Z"/><path class="cls-1" d="M679.1,138.33c25.43,0,30.19,13.84,22.16,51.16-6.24,29.29-13.53,56.2-44.9,56.2-25.43,0-30-13.84-22.16-51.15C640.45,165.39,647.73,138.33,679.1,138.33Zm-24.38,60.81c-5.65,26.47-4.61,32.56,4.61,32.56s13.38-8.31,19.18-35.37l2.38-11.46c5.65-26.47,4.61-32.56-4.61-32.56s-13.38,8.33-19.18,35.38Z"/><path class="cls-1" d="M755.11,138.33c25.43,0,30.19,13.84,22.16,51.16-6.25,29.29-13.53,56.2-44.91,56.2-25.42,0-30-13.84-22.15-51.15C716.45,165.39,723.74,138.33,755.11,138.33Zm-24.38,60.81c-5.65,26.47-4.61,32.56,4.61,32.56s13.38-8.31,19.18-35.37l2.38-11.46c5.65-26.47,4.61-32.56-4.61-32.56s-13.39,8.33-19.19,35.38Z"/><path class="cls-2" d="M469.8,72.07H439.72l-1.51,7.1-20.9,98.45c-4.71,21.74-19.9,32.33-46.4,32.33-13.43,0-22.86-2.87-27.25-8.32-3.53-4.38-4.31-11.19-2.35-20.25l20.91-98.51,2.29-10.8H323.38l-1.51,7.08L301.4,174.81c-4.71,22.49-2,40.2,8.14,52.64,10.9,13.42,30.1,20.22,57.06,20.22,50.38,0,82-23.91,91.49-69.15l20.46-95.63s1.19-4.59-1.51-7.44a10.82,10.82,0,0,0-7.24-3.38m-.4,9.27L449,176.61c-8.59,41-36.32,61.79-82.42,61.79-24,0-40.82-5.65-49.86-16.8-8.26-10.16-10.37-25.27-6.28-44.86l20.42-95.4h22.19l-20.82,98.07c-2.6,11.94-1.18,21.38,4.19,28,6.31,7.81,17.91,11.77,34.47,11.77,21.37,0,48.35-6.88,55.47-39.67l20.85-98.21Z"/></svg>